{
  "source": "C:\\Users\\Peter\\Desktop\\stuff\\MIUN\\quantitative_research\\video_compression\\videos\\BVI-HD\\BVI-HD_CDVL_videos\\ORIG\\Hamster_1920x1080_60fps.mp4",
  "output": "C:\\Users\\Peter\\Desktop\\stuff\\MIUN\\quantitative_research\\video_compression\\compressed_videos\\BVI-HD\\vp9\\2.5\\Hamster_1920x1080_60fps_vp9.webm",
  "codec": "vp9",
  "ok": "Input #0, mov,mp4,m4a,3gp,3g2,mj2, from 'C:\\Users\\Peter\\Desktop\\stuff\\MIUN\\quantitative_research\\video_compression\\videos\\BVI-HD\\BVI-HD_CDVL_videos\\ORIG\\Hamster_1920x1080_60fps.mp4':\n  Metadata:\n    major_brand     : isom\n    minor_version   : 512\n    compatible_brands: isomiso2avc1mp41\n    encoder         : Lavf54.28.101\n  Duration: 00:00:05.00, start: 0.000000, bitrate: 208485 kb/s\n  Stream #0:0[0x1](und): Video: h264 (High 4:4:4 Predictive) (avc1 / 0x31637661), yuv420p(progressive), 1920x1080, 208481 kb/s, 60 fps, 60 tbr, 60 tbn (default)\n    Metadata:\n      handler_name    : VideoHandler\n      vendor_id       : [0][0][0][0]\n[out#0/webm @ 0000022bf0399040] Codec AVOption b:a (set bitrate (in bits/s)) has not been used for any stream. The most likely reason is either wrong type (e.g. a video option with no video streams) or that it is a private option of some decoder which was not actually used for any stream.\nStream mapping:\n  Stream #0:0 -> #0:0 (h264 (native) -> vp9 (libvpx-vp9))\nPress [q] to stop, [?] for help\n[libvpx-vp9 @ 0000022bf039d1c0] v1.15.2-100-g40561f514\nOutput #0, webm, to 'C:\\Users\\Peter\\Desktop\\stuff\\MIUN\\quantitative_research\\video_compression\\compressed_videos\\BVI-HD\\vp9\\2.5\\Hamster_1920x1080_60fps_vp9.webm':\n  Metadata:\n    major_brand     : isom\n    minor_version   : 512\n    compatible_brands: isomiso2avc1mp41\n    encoder         : Lavf62.3.100\n  Stream #0:0(und): Video: vp9, yuv420p(tv, progressive), 1920x1080, q=2-31, 2500 kb/s, 60 fps, 1k tbn (default)\n    Metadata:\n      encoder         : Lavc62.11.100 libvpx-vp9\n      handler_name    : VideoHandler\n      vendor_id       : [0][0][0][0]\n    Side data:\n      cpb: bitrate max/min/avg: 0/0/0 buffer size: 2500000 vbv_delay: N/A\nframe=    0 fps=0.0 q=0.0 size=       0KiB time=N/A bitrate=N/A speed=N/A elapsed=0:00:00.51    \nframe=    6 fps=5.5 q=46.0 size=       1KiB time=00:00:00.10 bitrate=  50.6kbits/s speed=0.0915x elapsed=0:00:01.09    \nframe=   12 fps=7.4 q=49.0 size=       1KiB time=00:00:00.20 bitrate=  25.3kbits/s speed=0.123x elapsed=0:00:01.62    \nframe=   18 fps=8.3 q=47.0 size=       1KiB time=00:00:00.30 bitrate=  16.9kbits/s speed=0.139x elapsed=0:00:02.16    \nframe=   22 fps=8.1 q=46.0 size=       1KiB time=00:00:00.36 bitrate=  13.8kbits/s speed=0.135x elapsed=0:00:02.71    \nframe=   27 fps=8.3 q=46.0 size=       1KiB time=00:00:00.45 bitrate=  11.3kbits/s speed=0.138x elapsed=0:00:03.26    \nframe=   32 fps=8.4 q=48.0 size=       1KiB time=00:00:00.53 bitrate=   9.5kbits/s speed=0.14x elapsed=0:00:03.81    \nframe=   37 fps=8.5 q=31.0 size=       1KiB time=00:00:00.60 bitrate=   8.4kbits/s speed=0.138x elapsed=0:00:04.35    \nframe=   42 fps=8.6 q=46.0 size=       1KiB time=00:00:00.70 bitrate=   7.2kbits/s speed=0.143x elapsed=0:00:04.90    \nframe=   47 fps=8.6 q=47.0 size=       1KiB time=00:00:00.78 bitrate=   6.5kbits/s speed=0.144x elapsed=0:00:05.43    \nframe=   51 fps=8.5 q=45.0 size=       1KiB time=00:00:00.85 bitrate=   6.0kbits/s speed=0.142x elapsed=0:00:06.00    \nframe=   56 fps=8.5 q=44.0 size=       1KiB time=00:00:00.93 bitrate=   5.4kbits/s speed=0.142x elapsed=0:00:06.57    \nframe=   60 fps=8.5 q=44.0 size=       1KiB time=00:00:01.00 bitrate=   5.1kbits/s speed=0.141x elapsed=0:00:07.09    \nframe=   65 fps=8.5 q=42.0 size=       1KiB time=00:00:01.08 bitrate=   4.7kbits/s speed=0.142x elapsed=0:00:07.64    \nframe=   70 fps=8.6 q=46.0 size=       1KiB time=00:00:01.16 bitrate=   4.3kbits/s speed=0.143x elapsed=0:00:08.18    \nframe=   75 fps=8.6 q=46.0 size=       1KiB time=00:00:01.25 bitrate=   4.1kbits/s speed=0.144x elapsed=0:00:08.70    \nframe=   79 fps=8.6 q=49.0 size=       1KiB time=00:00:01.31 bitrate=   3.8kbits/s speed=0.143x elapsed=0:00:09.23    \nframe=   83 fps=8.5 q=50.0 size=       1KiB time=00:00:01.38 bitrate=   3.7kbits/s speed=0.141x elapsed=0:00:09.80    \nframe=   86 fps=8.3 q=49.0 size=       1KiB time=00:00:01.43 bitrate=   3.5kbits/s speed=0.139x elapsed=0:00:10.31    \nframe=   91 fps=8.4 q=50.0 size=       1KiB time=00:00:01.51 bitrate=   3.3kbits/s speed=0.14x elapsed=0:00:10.85    \nframe=   95 fps=8.3 q=50.0 size=       1KiB time=00:00:01.58 bitrate=   3.2kbits/s speed=0.139x elapsed=0:00:11.39    \nframe=   99 fps=8.3 q=50.0 size=       1KiB time=00:00:01.65 bitrate=   3.1kbits/s speed=0.138x elapsed=0:00:11.91    \nframe=  102 fps=8.2 q=50.0 size=       1KiB time=00:00:01.70 bitrate=   3.0kbits/s speed=0.136x elapsed=0:00:12.46    \nframe=  106 fps=8.2 q=50.0 size=       1KiB time=00:00:01.76 bitrate=   2.9kbits/s speed=0.136x elapsed=0:00:12.99    \nframe=  110 fps=8.1 q=53.0 size=       1KiB time=00:00:01.83 bitrate=   2.8kbits/s speed=0.136x elapsed=0:00:13.51    \nframe=  114 fps=8.1 q=52.0 size=       1KiB time=00:00:01.90 bitrate=   2.7kbits/s speed=0.135x elapsed=0:00:14.03    \nframe=  120 fps=8.3 q=51.0 size=       1KiB time=00:00:01.98 bitrate=   2.6kbits/s speed=0.136x elapsed=0:00:14.54    \nframe=  125 fps=8.3 q=49.0 size=       1KiB time=00:00:02.08 bitrate=   2.4kbits/s speed=0.138x elapsed=0:00:15.08    \nframe=  128 fps=8.2 q=49.0 size=       1KiB time=00:00:02.13 bitrate=   2.4kbits/s speed=0.137x elapsed=0:00:15.60    \nframe=  133 fps=8.2 q=50.0 size=     512KiB time=00:00:02.21 bitrate=1892.2kbits/s speed=0.137x elapsed=0:00:16.16    \nframe=  137 fps=8.2 q=47.0 size=     512KiB time=00:00:02.28 bitrate=1836.9kbits/s speed=0.137x elapsed=0:00:16.69    \nframe=  142 fps=8.2 q=47.0 size=     512KiB time=00:00:02.36 bitrate=1772.2kbits/s speed=0.137x elapsed=0:00:17.21    \nframe=  147 fps=8.3 q=45.0 size=     512KiB time=00:00:02.45 bitrate=1712.0kbits/s speed=0.138x elapsed=0:00:17.73    \nframe=  152 fps=8.3 q=44.0 size=     512KiB time=00:00:02.53 bitrate=1655.6kbits/s speed=0.139x elapsed=0:00:18.25    \nframe=  157 fps=8.3 q=45.0 size=     512KiB time=00:00:02.61 bitrate=1602.9kbits/s speed=0.139x elapsed=0:00:18.80    \nframe=  162 fps=8.4 q=45.0 size=     512KiB time=00:00:02.70 bitrate=1553.4kbits/s speed=0.14x elapsed=0:00:19.35    \nframe=  167 fps=8.4 q=46.0 size=     512KiB time=00:00:02.78 bitrate=1506.9kbits/s speed=0.14x elapsed=0:00:19.86    \nframe=  172 fps=8.4 q=46.0 size=     512KiB time=00:00:02.86 bitrate=1463.1kbits/s speed=0.14x elapsed=0:00:20.42    \nframe=  177 fps=8.4 q=45.0 size=     512KiB time=00:00:02.93 bitrate=1429.9kbits/s speed=0.14x elapsed=0:00:20.95    \nframe=  181 fps=8.4 q=47.0 size=     512KiB time=00:00:03.01 bitrate=1390.4kbits/s speed=0.14x elapsed=0:00:21.51    \nframe=  187 fps=8.5 q=46.0 size=     512KiB time=00:00:03.11 bitrate=1345.8kbits/s speed=0.141x elapsed=0:00:22.03    \nframe=  192 fps=8.5 q=46.0 size=     512KiB time=00:00:03.20 bitrate=1310.7kbits/s speed=0.142x elapsed=0:00:22.57    \nframe=  197 fps=8.5 q=46.0 size=     512KiB time=00:00:03.28 bitrate=1277.5kbits/s speed=0.142x elapsed=0:00:23.09    \nframe=  200 fps=8.4 q=46.0 size=     512KiB time=00:00:03.33 bitrate=1258.3kbits/s speed=0.141x elapsed=0:00:23.72    \nframe=  204 fps=8.4 q=48.0 size=     512KiB time=00:00:03.40 bitrate=1233.6kbits/s speed=0.14x elapsed=0:00:24.26    \nframe=  207 fps=8.3 q=52.0 size=     512KiB time=00:00:03.45 bitrate=1215.7kbits/s speed=0.139x elapsed=0:00:24.85    \nframe=  211 fps=8.3 q=54.0 size=     512KiB time=00:00:03.51 bitrate=1192.7kbits/s speed=0.138x elapsed=0:00:25.41    \nframe=  216 fps=8.3 q=53.0 size=     512KiB time=00:00:03.58 bitrate=1170.5kbits/s speed=0.138x elapsed=0:00:25.95    \nframe=  220 fps=8.3 q=54.0 size=     512KiB time=00:00:03.66 bitrate=1143.9kbits/s speed=0.138x elapsed=0:00:26.49    \nframe=  224 fps=8.3 q=39.0 size=     512KiB time=00:00:03.73 bitrate=1123.5kbits/s speed=0.138x elapsed=0:00:27.04    \nframe=  229 fps=8.3 q=56.0 size=     512KiB time=00:00:03.81 bitrate=1098.9kbits/s speed=0.138x elapsed=0:00:27.57    \nframe=  233 fps=8.3 q=57.0 size=     512KiB time=00:00:03.88 bitrate=1080.1kbits/s speed=0.138x elapsed=0:00:28.10    \nframe=  238 fps=8.3 q=58.0 size=     512KiB time=00:00:03.96 bitrate=1057.4kbits/s speed=0.138x elapsed=0:00:28.65    \nframe=  243 fps=8.3 q=58.0 size=     512KiB time=00:00:04.05 bitrate=1035.6kbits/s speed=0.139x elapsed=0:00:29.21    \nframe=  246 fps=8.3 q=57.0 size=     512KiB time=00:00:04.10 bitrate=1023.0kbits/s speed=0.138x elapsed=0:00:29.76    \nframe=  250 fps=8.2 q=54.0 size=     512KiB time=00:00:04.16 bitrate=1006.6kbits/s speed=0.137x elapsed=0:00:30.30    \nframe=  255 fps=8.3 q=52.0 size=     512KiB time=00:00:04.25 bitrate= 986.9kbits/s speed=0.138x elapsed=0:00:30.85    \nframe=  260 fps=8.3 q=50.0 size=    1024KiB time=00:00:04.33 bitrate=1935.8kbits/s speed=0.138x elapsed=0:00:31.39    \nframe=  266 fps=8.3 q=49.0 size=    1024KiB time=00:00:04.43 bitrate=1892.2kbits/s speed=0.139x elapsed=0:00:31.91    \nframe=  271 fps=8.3 q=49.0 size=    1024KiB time=00:00:04.51 bitrate=1857.3kbits/s speed=0.139x elapsed=0:00:32.45    \nframe=  275 fps=8.3 q=48.0 size=    1024KiB time=00:00:04.58 bitrate=1830.2kbits/s speed=0.139x elapsed=0:00:32.99    \nframe=  276 fps=8.2 q=47.0 size=    1024KiB time=00:00:04.60 bitrate=1823.6kbits/s speed=0.137x elapsed=0:00:33.52    \nframe=  276 fps=8.1 q=47.0 size=    1024KiB time=00:00:04.60 bitrate=1823.6kbits/s speed=0.135x elapsed=0:00:34.07    \nframe=  276 fps=8.0 q=47.0 size=    1024KiB time=00:00:04.60 bitrate=1823.6kbits/s speed=0.133x elapsed=0:00:34.61    \nframe=  276 fps=7.8 q=47.0 size=    1024KiB time=00:00:04.60 bitrate=1823.6kbits/s speed=0.131x elapsed=0:00:35.16    \n[out#0/webm @ 0000022bf0399040] video:1384KiB audio:0KiB subtitle:0KiB other streams:0KiB global headers:0KiB muxing overhead: 0.200052%\nframe=  300 fps=8.5 q=43.0 Lsize=    1387KiB time=00:00:05.00 bitrate=2271.9kbits/s speed=0.141x elapsed=0:00:35.46    \n",
  "seconds": 35.745441913604736,
  "probe_out": {}
}